# xmcd
#
# Track frame offsets: 
#        150
#        17549
#        36275
#        59686
#        74163
#        91439
#        111395
#        130275
#        147241
#        164729
#        182179
#        203542
#
# Disc length: 2888 seconds
#
# Revision: 0
# Processed by: cddbd v1.5.2PL0 Copyright (c) Steve Scherf et al.
# Submitted via: ExactAudioCopy v0.99pb5
#
DISCID=bb0b460c
DTITLE=Penn Masala - Pehchaan
DYEAR=2007
DGENRE=A Cappella
TTITLE0=Neelay Neelay - Only You
TTITLE1=Every Breath - Bheegay Hont
TTITLE2=Mitwa
TTITLE3=Used To Love U - Kangna
TTITLE4=Woh Lamhe
TTITLE5=Pehchaan
TTITLE6=Anytime - Meri Yaad
TTITLE7=Main Tanha
TTITLE8=Don't Stop - Dosti
TTITLE9=Aicha
TTITLE10=Dheere Jalna
TTITLE11=Aankhon Mein Tu Hai [Remastered]
EXTD=
EXTT0=
EXTT1=
EXTT2=
EXTT3=
EXTT4=
EXTT5=
EXTT6=
EXTT7=
EXTT8=
EXTT9=
EXTT10=
EXTT11=
PLAYORDER=
